<svg width="32" height="20" viewBox="0 0 32 20" fill="none" xmlns="http://www.w3.org/2000/svg">
<path d="M14.5061 11.2887C14.2799 14.1339 14.1009 16.6965 14.4511 18.9819C14.7675 21.1547 12.0514 19.4931 11.7146 17.3286C11.0155 12.6122 12.0642 5.91731 12.8413 1.39843C13.382 -1.78351 16.5364 1.63297 16.0047 3.38786C15.5388 4.92675 14.602 9.99267 14.5061 11.2887Z" fill="#FF004A"/>
<path d="M19.3081 16.9177C19.3502 19.0196 16.9135 16.7815 16.9122 14.6694C16.9032 12.3432 17.1947 8.91776 17.8957 6.13396C18.6696 3.02488 21.0176 6.65417 20.7447 8.20456C20.5223 9.468 19.2537 14.1236 19.3081 16.9177Z" fill="#FF004A"/>
<path d="M21.4458 0.0142102C20.4124 -0.10274 19.1061 0.503739 19.1451 1.77613C19.1783 2.90984 19.6052 3.79624 20.6501 4.03205C21.4873 4.22378 22.3117 3.47542 22.5424 2.58839C22.8191 1.52881 22.4798 0.13116 21.4458 0.0142102Z" fill="#FF004A"/>
<path d="M3.46484 19.1084C0.210051 18.9231 0.321888 15.1628 1.29583 12.9196C2.5842 9.95178 5.50732 7.66582 8.56719 6.74683C9.50088 6.46628 10.1399 6.94494 10.1649 7.89716C10.1732 8.2167 9.9789 9.42135 8.45536 10.0534C7.22067 10.5646 5.947 11.1705 4.87655 12.0166C3.97546 12.7273 2.35733 14.0744 2.65897 15.4171C2.8507 16.2613 3.76776 16.2083 4.43623 16.1335C5.09064 16.0607 5.72268 15.8632 6.35345 15.6862C7.18589 15.4562 7.99028 15.1347 8.75189 14.7276C9.30596 14.4253 9.7073 14.7646 9.72391 15.4612C9.77376 17.4967 5.26127 19.2055 3.46484 19.1084Z" fill="#FF004A"/>
<path d="M24.6041 15.614C21.3493 15.4318 21.4611 11.6715 22.4351 9.42838C23.7234 6.46053 26.6466 4.17457 29.7064 3.25558C30.6401 2.97503 31.2792 3.45433 31.3041 4.40591C31.3124 4.72545 31.1181 5.92946 29.5946 6.5615C28.3599 7.07276 27.0862 7.6786 26.0158 8.52473C25.1173 9.23282 23.501 10.58 23.8008 11.9227C23.9893 12.7669 24.9096 12.7138 25.578 12.6391C26.2324 12.5662 26.8645 12.3687 27.4952 12.1917C28.3277 11.9618 29.1321 11.6403 29.8937 11.2331C30.4478 10.9308 30.8523 11.2702 30.8657 11.9668C30.913 14.0054 26.4005 15.7149 24.6041 15.614Z" fill="#FF004A"/>
</svg>
