<svg xmlns="http://www.w3.org/2000/svg" width="20" height="21" viewBox="0 0 20 21" fill="none">
      <mask id="mask0_79_7876" style="mask-type:alpha" maskUnits="userSpaceOnUse" x="0" y="0" width="20" height="21">
        <rect y="0.625" width="20" height="20" fill="#D9D9D9"></rect>
      </mask>
      <g mask="url(#mask0_79_7876)">
        <path d="M5.83325 18.9579C5.37492 18.9579 4.98256 18.7947 4.65617 18.4683C4.32978 18.142 4.16659 17.7496 4.16659 17.2913C4.16659 16.8329 4.32978 16.4406 4.65617 16.1142C4.98256 15.7878 5.37492 15.6246 5.83325 15.6246C6.29158 15.6246 6.68395 15.7878 7.01033 16.1142C7.33672 16.4406 7.49992 16.8329 7.49992 17.2913C7.49992 17.7496 7.33672 18.142 7.01033 18.4683C6.68395 18.7947 6.29158 18.9579 5.83325 18.9579ZM14.1666 18.9579C13.7083 18.9579 13.3159 18.7947 12.9895 18.4683C12.6631 18.142 12.4999 17.7496 12.4999 17.2913C12.4999 16.8329 12.6631 16.4406 12.9895 16.1142C13.3159 15.7878 13.7083 15.6246 14.1666 15.6246C14.6249 15.6246 15.0173 15.7878 15.3437 16.1142C15.6701 16.4406 15.8333 16.8329 15.8333 17.2913C15.8333 17.7496 15.6701 18.142 15.3437 18.4683C15.0173 18.7947 14.6249 18.9579 14.1666 18.9579ZM4.33325 3.95793H16.6249C16.9444 3.95793 17.1874 4.10029 17.3541 4.38501C17.5208 4.66973 17.5277 4.95793 17.3749 5.24959L14.4166 10.5829C14.2638 10.8607 14.0589 11.076 13.802 11.2288C13.5451 11.3815 13.2638 11.4579 12.9583 11.4579H6.74992L5.83325 13.1246H15.8333V14.7913H5.83325C5.20825 14.7913 4.73603 14.517 4.41659 13.9683C4.09714 13.4197 4.08325 12.8746 4.37492 12.3329L5.49992 10.2913L2.49992 3.95793H0.833252V2.29126H3.54159L4.33325 3.95793Z" fill="white"></path>
      </g>
      <path fill-rule="evenodd" clip-rule="evenodd" d="M15.99 0.375C13.7845 0.375 12 2.175 12 4.375C12 6.575 13.7845 8.375 15.99 8.375C18.1955 8.375 20 6.575 20 4.375C20 2.175 18.1955 0.375 15.99 0.375Z" fill="#23C847"></path>
    </svg>