<?xml version="1.0" encoding="UTF-8"?>
<svg xmlns="http://www.w3.org/2000/svg" xmlns:xlink="http://www.w3.org/1999/xlink" width="px" height="px" viewBox="0 0 341 112" version="1.1">
<g id="surface1">
<path style=" stroke:none;fill-rule:evenodd;fill:rgb(56.470588%,38.823529%,80.392157%);fill-opacity:1;" d="M 329.335938 7.992188 C 327.15625 7.511719 324.960938 7.269531 322.8125 7.3125 L 322.792969 7.3125 C 320.546875 7.347656 318.328125 7.582031 316.1875 8.039062 C 313.996094 8.515625 311.847656 9.171875 309.765625 9.984375 C 307.679688 10.835938 305.65625 11.824219 303.707031 12.941406 C 301.742188 14.109375 299.863281 15.375 298.089844 16.753906 C 298.089844 16.753906 298.085938 16.753906 298.085938 16.753906 C 297.816406 16.964844 297.589844 17.152344 297.324219 17.375 C 297.15625 17.511719 296.972656 17.664062 296.753906 17.839844 L 296.125 18.363281 L 295.515625 18.910156 C 295.285156 19.121094 295.101562 19.285156 294.9375 19.429688 C 294.699219 19.644531 294.503906 19.816406 294.273438 20.042969 L 292.964844 21.332031 L 292.941406 21.351562 C 292.808594 21.476562 292.664062 21.628906 292.484375 21.824219 L 292.472656 21.835938 L 291.839844 22.519531 C 291.8125 22.546875 291.789062 22.574219 291.765625 22.597656 C 291.359375 23.03125 291.054688 23.359375 290.777344 23.699219 L 290.757812 23.722656 L 289.609375 25.070312 L 288.542969 26.449219 C 287.3125 28.03125 285.035156 28.320312 283.453125 27.089844 C 281.875 25.859375 281.585938 23.578125 282.816406 21.992188 L 283.984375 20.488281 L 285.195312 19.0625 C 285.621094 18.542969 286.074219 18.058594 286.4375 17.671875 C 286.472656 17.632812 286.507812 17.597656 286.539062 17.5625 C 286.539062 17.5625 286.542969 17.558594 286.542969 17.558594 L 287.148438 16.910156 C 287.371094 16.664062 287.628906 16.390625 287.921875 16.113281 L 289.203125 14.847656 L 289.210938 14.839844 C 289.546875 14.515625 289.964844 14.140625 290.289062 13.851562 C 290.425781 13.730469 290.542969 13.621094 290.636719 13.539062 L 290.648438 13.527344 L 291.390625 12.859375 L 292.160156 12.222656 L 292.171875 12.210938 C 292.285156 12.121094 292.421875 12.007812 292.574219 11.882812 C 292.902344 11.613281 293.292969 11.289062 293.644531 11.015625 C 295.6875 9.425781 297.828125 7.992188 300.027344 6.683594 L 300.050781 6.667969 L 300.074219 6.65625 C 302.320312 5.367188 304.648438 4.226562 307.058594 3.246094 L 307.082031 3.238281 L 307.101562 3.230469 C 309.542969 2.273438 312.066406 1.503906 314.652344 0.941406 L 314.65625 0.941406 L 314.664062 0.9375 C 317.308594 0.371094 320 0.09375 322.675781 0.0507812 C 325.445312 -0.00390625 328.199219 0.308594 330.851562 0.890625 C 332.144531 1.144531 333.390625 1.542969 334.414062 1.867188 C 334.546875 1.910156 334.671875 1.953125 334.796875 1.992188 L 334.914062 2.027344 L 336.726562 2.738281 C 337.199219 2.910156 337.613281 3.113281 337.867188 3.238281 L 337.886719 3.246094 L 338.714844 3.648438 C 340.519531 4.519531 341.277344 6.691406 340.40625 8.496094 C 339.535156 10.304688 337.371094 11.0625 335.566406 10.191406 L 334.714844 9.777344 L 334.703125 9.773438 C 334.40625 9.625 334.292969 9.578125 334.214844 9.546875 L 334.171875 9.53125 L 332.5 8.878906 C 332.40625 8.851562 332.3125 8.820312 332.222656 8.792969 C 331.136719 8.449219 330.289062 8.179688 329.421875 8.007812 Z M 329.335938 7.992188 "/>
<path style=" stroke:none;fill-rule:evenodd;fill:rgb(99.215686%,85.490196%,14.117647%);fill-opacity:1;" d="M 315.007812 7.789062 C 315.457031 9.046875 314.804688 10.425781 313.550781 10.875 C 307.78125 12.945312 302.375 16.117188 297.757812 20.140625 C 295.457031 22.148438 293.363281 24.371094 291.542969 26.769531 L 261.511719 67.101562 C 260.714844 68.171875 259.207031 68.390625 258.136719 67.59375 C 257.070312 66.796875 256.851562 65.285156 257.648438 64.214844 L 287.695312 23.867188 L 287.699219 23.859375 C 289.730469 21.175781 292.058594 18.714844 294.59375 16.5 C 299.664062 12.082031 305.59375 8.601562 311.925781 6.332031 C 313.179688 5.882812 314.558594 6.535156 315.007812 7.789062 Z M 315.007812 7.789062 "/>
<path style=" stroke:none;fill-rule:evenodd;fill:rgb(100%,49.803922%,25.490196%);fill-opacity:1;" d="M 35.914062 58.519531 C 24.105469 62.425781 13.585938 69.78125 7.105469 79.421875 C 5.988281 81.082031 3.734375 81.523438 2.074219 80.40625 C 0.414062 79.285156 -0.0273438 77.027344 1.09375 75.363281 C 8.613281 64.175781 20.570312 55.949219 33.636719 51.625 C 46.707031 47.300781 61.195312 46.777344 73.898438 51.390625 C 84.929688 55.398438 94.445312 62.371094 102.984375 69.503906 C 104.523438 70.789062 104.726562 73.078125 103.445312 74.617188 C 102.164062 76.15625 99.875 76.363281 98.339844 75.078125 C 89.980469 68.09375 81.246094 61.785156 71.425781 58.21875 C 60.511719 54.253906 47.722656 54.613281 35.914062 58.519531 Z M 35.914062 58.519531 "/>
<path style=" stroke:none;fill-rule:evenodd;fill:rgb(99.215686%,85.490196%,14.117647%);fill-opacity:1;" d="M 64.871094 52.03125 C 60.644531 51.382812 56.316406 51.3125 52.035156 51.808594 C 50.714844 51.960938 49.519531 51.011719 49.363281 49.6875 C 49.210938 48.363281 50.160156 47.164062 51.484375 47.011719 C 56.175781 46.46875 60.933594 46.542969 65.59375 47.257812 L 66.421875 47.378906 C 66.664062 47.417969 66.972656 47.476562 67.175781 47.515625 C 67.242188 47.53125 67.296875 47.542969 67.335938 47.546875 L 67.347656 47.550781 L 69.066406 47.882812 L 70.761719 48.289062 L 71.636719 48.503906 L 72.476562 48.746094 C 74.78125 49.371094 76.992188 50.203125 79.105469 51.074219 L 79.136719 51.089844 L 79.171875 51.101562 C 79.328125 51.175781 79.492188 51.246094 79.65625 51.320312 C 80.5 51.695312 81.433594 52.109375 82.332031 52.582031 C 83.253906 53.027344 84.148438 53.535156 84.957031 53.996094 C 85.109375 54.082031 85.253906 54.164062 85.398438 54.246094 C 85.777344 54.457031 86.210938 54.734375 86.550781 54.953125 C 86.695312 55.042969 86.820312 55.125 86.917969 55.183594 L 86.933594 55.195312 L 86.949219 55.203125 C 87.03125 55.253906 87.117188 55.308594 87.207031 55.367188 C 87.582031 55.601562 88.046875 55.894531 88.476562 56.207031 L 89.851562 57.175781 L 89.859375 57.179688 C 90.164062 57.398438 90.476562 57.628906 90.761719 57.84375 C 90.914062 57.957031 91.058594 58.066406 91.195312 58.164062 L 91.199219 58.164062 L 132.816406 89 L 132.816406 89.003906 L 135.40625 90.921875 C 135.40625 90.921875 135.410156 90.925781 135.410156 90.925781 C 135.703125 91.140625 135.980469 91.347656 136.25 91.546875 C 136.835938 91.984375 137.378906 92.386719 137.933594 92.765625 L 137.945312 92.777344 L 140.488281 94.558594 L 143.097656 96.203125 C 144.226562 96.914062 144.566406 98.40625 143.855469 99.53125 C 143.148438 100.660156 141.660156 101 140.535156 100.292969 L 137.820312 98.582031 L 135.203125 96.746094 C 134.566406 96.308594 133.902344 95.8125 133.28125 95.351562 C 133.03125 95.164062 132.789062 94.984375 132.558594 94.816406 L 132.554688 94.8125 L 129.949219 92.882812 L 98.738281 69.757812 L 88.34375 62.054688 C 88.34375 62.054688 88.34375 62.054688 88.339844 62.050781 C 88.15625 61.917969 87.992188 61.792969 87.832031 61.675781 C 87.574219 61.484375 87.335938 61.308594 87.066406 61.113281 L 85.667969 60.132812 L 85.648438 60.117188 C 85.367188 59.910156 85.082031 59.730469 84.722656 59.503906 C 84.613281 59.4375 84.5 59.363281 84.378906 59.289062 C 84.132812 59.136719 83.945312 59.011719 83.773438 58.90625 C 83.515625 58.738281 83.3125 58.609375 83.046875 58.460938 L 83.039062 58.457031 L 83.035156 58.453125 C 82.867188 58.359375 82.703125 58.265625 82.542969 58.175781 C 81.71875 57.707031 80.976562 57.285156 80.203125 56.914062 L 80.164062 56.894531 L 80.121094 56.871094 C 79.371094 56.472656 78.601562 56.132812 77.742188 55.75 C 77.578125 55.675781 77.410156 55.601562 77.238281 55.527344 C 75.210938 54.691406 73.214844 53.945312 71.199219 53.398438 L 71.175781 53.394531 L 70.394531 53.167969 L 69.628906 52.980469 L 68.046875 52.601562 L 66.453125 52.292969 C 66.28125 52.261719 66.164062 52.238281 66.070312 52.21875 C 65.941406 52.195312 65.855469 52.175781 65.722656 52.15625 L 65.71875 52.15625 L 64.878906 52.035156 Z M 64.871094 52.03125 "/>
<path style=" stroke:none;fill-rule:evenodd;fill:rgb(56.470588%,38.823529%,80.392157%);fill-opacity:1;" d="M 117.546875 82.988281 C 117.96875 82.425781 118.765625 82.308594 119.332031 82.730469 L 131.203125 91.59375 L 132.675781 92.695312 L 134.203125 93.78125 C 134.492188 93.984375 134.769531 94.183594 135.042969 94.378906 C 135.796875 94.914062 136.507812 95.417969 137.269531 95.878906 L 137.28125 95.886719 L 139.703125 97.425781 L 139.710938 97.429688 C 139.851562 97.519531 139.96875 97.585938 140.117188 97.664062 C 140.214844 97.71875 140.328125 97.78125 140.46875 97.867188 C 140.867188 98.089844 141.253906 98.308594 141.636719 98.527344 C 142.34375 98.929688 143.035156 99.320312 143.75 99.703125 C 152.566406 104.363281 162.234375 107.351562 172.105469 108.535156 C 172.804688 108.621094 173.300781 109.257812 173.21875 109.957031 C 173.132812 110.65625 172.5 111.15625 171.800781 111.070312 C 161.625 109.851562 151.65625 106.765625 142.558594 101.960938 L 142.554688 101.957031 C 141.808594 101.558594 141.0625 101.132812 140.332031 100.71875 C 139.957031 100.503906 139.582031 100.292969 139.21875 100.089844 L 139.207031 100.082031 L 139.199219 100.078125 C 139.144531 100.046875 139.074219 100.007812 138.992188 99.960938 C 138.796875 99.851562 138.535156 99.707031 138.332031 99.574219 L 135.9375 98.054688 C 135.09375 97.542969 134.273438 96.960938 133.5 96.410156 C 133.242188 96.226562 132.988281 96.046875 132.742188 95.871094 L 132.738281 95.871094 L 131.175781 94.757812 L 129.679688 93.640625 L 117.808594 84.777344 C 117.242188 84.355469 117.128906 83.554688 117.546875 82.988281 Z M 117.546875 82.988281 "/>
<path style=" stroke:none;fill-rule:nonzero;fill:rgb(100%,49.803922%,25.490196%);fill-opacity:1;" d="M 246.902344 76.914062 L 273.761719 40.871094 C 274.1875 39.851562 275.425781 39.949219 275.886719 40.125 C 276.734375 40.636719 276.238281 41.6875 275.886719 42.148438 L 249.980469 77.234375 C 244.207031 84.378906 239.71875 88.644531 238.195312 89.777344 C 237.84375 90.0625 237.027344 91.054688 230.871094 95.09375 C 225.640625 98.527344 218.945312 102.113281 216.113281 103.28125 C 213.820312 104.472656 213.035156 103.777344 212.929688 103.28125 C 212.417969 102.007812 214.0625 101.191406 214.945312 100.941406 L 218.238281 99.453125 C 230.871094 93.074219 234.019531 89.847656 238.621094 85.949219 C 240.066406 84.929688 244.742188 79.5 246.902344 76.914062 Z M 246.902344 76.914062 "/>
</g>
</svg>
