<svg width="101" height="100" viewBox="0 0 101 100" fill="none" xmlns="http://www.w3.org/2000/svg">
<path d="M75.197 34.8804H13.4478C12.3721 34.8804 11.5 35.7604 11.5 36.8459V74.3747C11.5 75.4603 12.3721 76.3403 13.4478 76.3403H75.197C76.2728 76.3403 77.1448 75.4603 77.1448 74.3747V36.8459C77.1448 35.7604 76.2728 34.8804 75.197 34.8804Z" fill="#E8E7E7"/>
<path d="M77.1448 43.4526H11.5V50.4665H77.1448V43.4526Z" fill="#1B1B1B"/>
<path d="M22.9347 55.6097H14.9766V57.7925H22.9347V55.6097Z" fill="#969696"/>
<path d="M33.1661 55.6097H25.208V57.7925H33.1661V55.6097Z" fill="#969696"/>
<path d="M43.3995 55.6097H35.4414V57.7925H43.3995V55.6097Z" fill="#969696"/>
<path d="M53.6319 55.6097H45.6738V57.7925H53.6319V55.6097Z" fill="#969696"/>
<path d="M63.4366 55.6097H55.4785V57.7925H63.4366V55.6097Z" fill="#969696"/>
<path d="M73.67 55.6097H65.7119V57.7925H73.67V55.6097Z" fill="#969696"/>
<path d="M16.8787 72.5829V72.1784C15.699 71.8892 14.9564 70.9282 14.9551 69.9671C14.9551 69.6386 15.2429 69.3848 15.594 69.3834C15.9451 69.3834 16.2343 69.6359 16.2343 69.9644C16.2343 70.4707 16.4496 70.863 16.876 70.9635L16.8706 67.8875L16.7697 67.8237C16.5814 67.7233 16.4428 67.6473 16.3433 67.5713C15.5644 67.0283 15.0492 66.3835 15.0479 65.4727C15.0466 64.3338 15.8469 63.5858 16.8625 63.3306V63.0904C16.8625 62.7741 17.1491 62.5203 17.4881 62.5203C17.8513 62.5203 18.1405 62.7727 18.1418 63.089V63.3293C19.222 63.5804 20.0506 64.2876 20.052 65.3885C20.052 65.7048 19.7641 65.9586 19.413 65.9586C19.0498 65.9586 18.7606 65.7061 18.7606 65.3899C18.7606 64.9976 18.5844 64.6935 18.1445 64.5686L18.1485 67.3025L18.5629 67.5427C19.5543 68.1101 20.1071 68.9192 20.1098 69.9956C20.1125 71.2105 19.2099 71.9842 18.1566 72.1879V72.5802C18.1566 72.8964 17.8701 73.1503 17.5055 73.1503C17.1666 73.1503 16.8787 72.8978 16.8773 72.5815L16.8787 72.5829ZM16.9433 66.6088L16.9392 64.3935C16.4751 64.6351 16.2626 64.9894 16.2639 65.4319C16.2639 66.0143 16.5666 66.3048 16.9433 66.6075V66.6088ZM18.1512 68.6572L18.1553 71.0245C18.5817 70.8589 18.844 70.4789 18.8427 69.9983C18.8427 69.4662 18.6906 68.9857 18.1512 68.6585V68.6572Z" fill="white"/>
<path d="M79.4971 43.2496C85.0216 43.2496 89.5 38.8642 89.5 33.4546C89.5 28.045 85.0216 23.6597 79.4971 23.6597C73.9726 23.6597 69.4941 28.045 69.4941 33.4546C69.4941 38.8642 73.9726 43.2496 79.4971 43.2496Z" fill="#FF0000"/>
<path d="M79.4901 36.0052C80.2589 36.0052 80.8855 35.4311 80.8855 34.7251V27.6C80.8855 26.9039 80.2601 26.3372 79.4901 26.3372C78.7201 26.3372 78.0947 26.9039 78.0947 27.6V34.7239C78.0947 35.4298 78.7201 36.004 79.4901 36.004V36.0052Z" fill="white"/>
<path d="M80.7208 37.9537C80.5056 37.7295 80.1181 37.4634 79.4902 37.4634C78.422 37.4634 77.8457 38.2692 77.8457 39.0269C77.8457 39.4298 77.9954 39.8068 78.266 40.0889C78.4786 40.3095 78.8624 40.5719 79.4902 40.5719C80.5786 40.5719 81.1473 39.7945 81.1473 39.0269C81.1473 38.6215 80.9963 38.2408 80.7208 37.9537Z" fill="white"/>
</svg>
