<svg width="56" height="26" viewBox="0 0 56 26" fill="none" xmlns="http://www.w3.org/2000/svg">
<g clip-path="url(#clip0_33_34)">
<path d="M35.3921 13.8637C35.4358 14.0832 35.4552 14.2881 35.4552 14.4832C35.4552 15.1124 35.2854 15.6441 34.9505 16.0734C34.5816 16.5417 34.1448 16.7807 33.5381 16.7807C33.0285 16.7807 32.6742 16.4539 32.417 16.2198H32.3975L32.3781 18.4295H31.6113V13.9368C31.6113 13.6295 31.6064 12.6588 31.6016 12.4295H32.2665L32.3005 13.2295H32.3199C32.6111 12.6295 33.0625 12.332 33.6692 12.332C34.0963 12.332 34.5719 12.4832 34.868 12.7905C35.1252 13.0637 35.3048 13.4198 35.3921 13.8637ZM34.6447 13.9124C34.5913 13.6344 34.4797 13.4051 34.3147 13.2295C34.1302 13.0295 33.7856 12.9271 33.5187 12.9271C33.1256 12.9271 32.7713 13.0929 32.5577 13.5368C32.3878 13.8929 32.3636 14.3417 32.3733 14.7759L32.3927 15.2539C32.4995 15.9368 33.0285 16.2002 33.3731 16.2002C33.7905 16.2002 34.1205 16.0002 34.3681 15.5954C34.5768 15.249 34.6835 14.8539 34.6835 14.41C34.6932 14.2393 34.6787 14.0734 34.6447 13.9124Z" fill="#FF4A3D"/>
<path d="M38.9634 16.6929L38.8955 16.1563H38.876C38.58 16.5807 38.148 16.7905 37.5802 16.7905C37.2113 16.7905 36.9007 16.6783 36.658 16.4539C36.4153 16.2295 36.2891 15.9319 36.2891 15.5661C36.2891 14.9661 36.5852 14.5319 37.1725 14.2636C37.5996 14.0685 38.1529 13.9758 38.8372 13.9807V13.888C38.8372 13.2344 38.5169 12.9076 37.8762 12.9076C37.454 12.9076 37.0851 13.0149 36.7745 13.2246L36.5998 12.7076C36.9832 12.4588 37.4491 12.332 37.9976 12.332C39.0702 12.332 39.6041 12.9124 39.6041 14.0783V15.6685C39.6041 15.7758 39.6041 16.6002 39.6089 16.688H38.9634V16.6929ZM38.8469 15.2588V14.5124C37.653 14.488 37.056 14.81 37.056 15.4734C37.056 15.6978 37.1191 15.8783 37.2501 16.01C37.3812 16.1417 37.5559 16.21 37.7792 16.21C38.017 16.21 38.2305 16.1466 38.4198 16.0149C38.6091 15.8831 38.7401 15.7075 38.8129 15.4831C38.8324 15.4197 38.8469 15.3417 38.8469 15.2588Z" fill="#FF4A3D"/>
<path d="M40.1289 12.4307H40.9734L41.9004 14.9478C41.9683 15.1234 42.0557 15.416 42.1722 15.8209H42.1916C42.2353 15.6551 42.3275 15.3624 42.4634 14.9331L43.303 12.4356H44.1184L42.9633 15.4697C42.6866 16.1965 42.4391 16.7673 42.2159 17.1819C41.7548 18.0356 41.2063 18.5234 40.5608 18.6453L40.3667 17.9917C40.9491 17.8014 41.3956 17.3868 41.6917 16.7478C41.7305 16.6599 41.7499 16.6014 41.7499 16.5624C41.7499 16.5136 41.7305 16.4453 41.6965 16.3624L40.1289 12.4307Z" fill="#FF4A3D"/>
<path d="M15.4677 18.0739C15.1571 18.2251 14.9386 18.5129 14.5843 18.6056C14.0408 18.7519 13.8321 18.6934 13.536 18.2153C13.4292 18.0495 13.3516 18.0788 13.2254 18.1812C13.0749 18.2983 12.9245 18.4251 12.7594 18.5129C11.9052 18.9519 11.0462 18.5324 10.9734 17.5763C10.852 16.0251 11.3325 14.669 12.4634 13.5763C12.7934 13.2592 13.2157 13.1129 13.6622 13.0592C14.1233 13.0007 14.4242 13.1958 14.7105 13.7519C14.9629 13.3275 15.3366 13.2202 15.7783 13.3275C16.2006 13.43 16.3364 13.7031 16.1666 14.108C15.8365 14.8788 15.4871 15.6349 15.2638 16.4495C15.2056 16.6739 15.0843 16.9958 15.2832 17.1032C15.4774 17.2105 15.6473 16.908 15.8074 16.7519C16.0452 16.508 16.1714 16.191 16.2831 15.8739C16.5209 15.1812 16.7781 14.4983 17.0742 13.8349C17.3411 13.2349 17.9041 13.0788 18.4089 13.4885C18.569 13.6202 18.637 13.5812 18.7583 13.4739C18.8748 13.3714 19.0107 13.2885 19.1466 13.2153C20.0348 12.7471 20.8308 13.1958 20.8842 14.2007C20.9472 15.3129 20.5493 16.2934 19.9863 17.2153C19.9377 17.2934 19.8795 17.3763 19.8212 17.4592C20.2435 17.4007 20.7337 16.8983 20.9424 16.2934C21.2142 15.4836 21.5151 14.6934 21.8548 13.9129C22.1655 13.2007 22.6314 13.0641 23.2672 13.5227C23.3982 13.6153 23.4468 13.5714 23.5341 13.5031C23.6846 13.3666 23.8593 13.2592 24.0438 13.1714C24.8883 12.7812 25.6163 13.2153 25.6988 14.1519C25.791 15.2544 25.3882 16.2202 24.8591 17.1422C24.8106 17.23 24.7572 17.308 24.7135 17.3861C24.6941 17.4153 24.6116 17.43 24.665 17.4788C24.699 17.5129 24.7524 17.4836 24.7815 17.4446C25.3105 17.1568 25.6503 16.708 25.8298 16.1324C26.0871 15.3129 26.3831 14.5031 26.8054 13.7471C27.0286 13.3519 27.3053 13.2202 27.7615 13.2983C28.2711 13.391 28.4119 13.6592 28.2129 14.1324C27.8877 14.8885 27.5383 15.6397 27.3296 16.4446C27.2713 16.6592 27.1645 16.9861 27.3296 17.0788C27.5528 17.1958 27.7324 16.8934 27.8877 16.7275C28.0721 16.5275 28.2372 16.3032 28.3973 16.0788C28.5187 15.908 28.6643 15.8349 28.8487 15.9471C29.0428 16.069 28.9652 16.23 28.8633 16.3812C28.4167 17.0641 27.9362 17.7227 27.2859 18.2349C27.2228 18.2836 27.1548 18.3422 27.0869 18.3861C26.2715 18.9422 25.66 18.669 25.5289 17.6446C25.0921 17.9324 24.6699 18.2056 24.1942 18.4007C23.6506 18.6251 23.0828 18.669 22.5101 18.6446C22.2431 18.63 22.0878 18.4446 21.8646 18.2349C21.6801 18.8983 21.5005 19.5275 21.3258 20.1471C21.3064 20.2251 21.2918 20.3129 21.2676 20.391C21.1511 20.9032 21.0395 21.0202 20.6803 20.9812C20.2338 20.9373 19.8843 20.6056 19.8698 20.2105C19.8504 19.83 19.9911 19.4836 20.0785 19.1227C20.1804 18.7178 20.3017 18.3227 20.4231 17.8739C19.3262 18.4592 18.2875 19.0202 17.0451 18.3373C16.8364 18.869 16.6956 19.4983 16.5306 20.1129C16.5112 20.191 16.4869 20.2788 16.4723 20.3568C16.3364 20.9471 16.2345 21.0397 15.8074 20.9714C15.293 20.8836 14.9775 20.4934 15.0745 20.0105C15.191 19.4495 15.356 18.8983 15.4968 18.3373C15.5162 18.2592 15.5259 18.1714 15.5405 18.0934C15.5696 18.0739 15.5842 18.0495 15.5453 18.03C15.5065 18.0349 15.4822 18.0641 15.4677 18.0739ZM19.3068 14.4592C19.2777 14.2983 19.3505 14.1422 19.2194 14.0836C19.0835 14.0202 19.0059 14.1568 18.9331 14.2446C18.1419 15.1324 17.7634 16.2007 17.5838 17.3519C17.5692 17.469 17.5547 17.6202 17.6857 17.669C17.7925 17.7129 17.8799 17.6056 17.9527 17.5227C18.7195 16.6251 19.1126 15.5666 19.3068 14.4592ZM24.1117 14.4885C24.0826 14.3178 24.1602 14.1422 24.0243 14.0788C23.8884 14.0153 23.7865 14.1666 23.7089 14.2592C22.9711 15.1617 22.5635 16.2056 22.3839 17.3471C22.3645 17.4641 22.3645 17.6202 22.4712 17.6788C22.5926 17.7422 22.6848 17.6007 22.7576 17.5178C23.5147 16.63 23.9176 15.5861 24.1117 14.4885ZM14.0699 14.5714C14.0213 14.391 14.1572 14.1373 13.9534 14.0739C13.7738 14.0153 13.6573 14.2446 13.5651 14.391C12.9973 15.2641 12.609 16.2056 12.5459 17.2592C12.541 17.391 12.4876 17.5861 12.6527 17.6349C12.7886 17.6788 12.8808 17.5275 12.9536 17.4251C13.5991 16.5714 13.9388 15.6056 14.0699 14.5714Z" fill="#FF4A3D"/>
<path d="M7.5956 16.9859C7.47911 17.4493 7.35778 17.9029 7.24615 18.3615C7.15878 18.7127 6.97921 18.8444 6.63461 18.8005C5.9891 18.7273 5.62509 18.259 5.75128 17.62C6.09587 15.9176 6.6977 14.3029 7.39175 12.7273C7.52765 12.4151 7.78488 12.3663 8.06638 12.3371C9.08561 12.2444 9.22636 12.4395 8.84294 13.3663C8.61482 13.9273 8.40613 14.4981 8.17801 15.0883C9.18753 14.8346 10.0806 13.6298 10.0369 12.6395C10.0078 12.0785 9.60008 11.6932 8.98854 11.6785C7.91107 11.6493 7.16849 12.22 6.59093 13.0688C6.36767 13.4005 6.21236 13.7615 6.16868 14.1663C6.12014 14.6054 5.79496 14.7663 5.40668 14.542C5.0184 14.3176 4.83883 13.8444 4.97472 13.3468C5.11062 12.8444 5.39697 12.4298 5.7804 12.0932C7.1782 10.859 8.77984 10.5517 10.5125 11.2005C11.988 11.7566 12.2938 13.2932 11.192 14.4932C10.697 15.0395 10.0709 15.3859 9.38653 15.6249C9.14385 15.7029 9.07105 15.82 9.10017 16.0639C9.19239 16.9078 9.35741 17.7224 9.89129 18.42C10.5028 19.22 11.3182 19.4297 12.2355 19.0249C12.3569 18.9761 12.4733 18.9078 12.5947 18.8737C12.716 18.8395 12.8325 18.8737 12.9053 18.9956C12.9781 19.1176 12.9393 19.22 12.8616 19.3273C12.2015 20.1566 10.6581 20.6541 9.69715 20.3273C8.7216 19.9956 8.24596 19.2102 7.94019 18.2883C7.79944 17.8639 7.74605 17.4249 7.5956 16.9859Z" fill="#FF4A3D"/>
<path d="M29.18 11.7521C29.1606 12.357 28.6413 12.8497 28.0589 12.8253C27.4716 12.796 27.0203 12.3082 27.0397 11.6984C27.0591 11.1228 27.5784 10.6399 28.1608 10.6692C28.719 10.6887 29.1995 11.196 29.18 11.7521Z" fill="#FF4A3D"/>
<path d="M24.7579 17.4599C24.7286 17.5038 24.6701 17.5233 24.6408 17.4941C24.592 17.4453 24.6701 17.4307 24.6896 17.4014C24.7091 17.416 24.7383 17.4404 24.7579 17.4599Z" fill="#FF4A3D"/>
<path d="M49.8114 8.08265C49.1271 7.50216 48.0496 6.68753 47.5352 6.30216C47.4478 6.23875 47.3993 6.13143 47.4138 6.01924C47.4672 5.48753 47.5643 4.94119 47.6808 4.4729C47.8264 3.90217 47.938 3.30704 47.608 2.88265C47.3944 2.60461 47.0255 2.46314 46.5208 2.46314H44.5211C44.0309 2.46314 43.7155 2.51192 43.4922 2.79973C43.4097 2.90704 43.3951 3.04851 43.3951 3.18997C43.3951 3.38509 43.4728 3.75582 43.2981 3.67778L42.8418 3.46802C40.9247 2.58509 38.9882 1.72168 38.2213 1.7168C36.0033 1.72656 30.6984 4.64363 26.6409 8.07777C25.0053 9.4632 24.9519 10.4924 25.1945 11.112C25.2722 11.312 25.3935 11.4924 25.5489 11.6534C25.6071 11.712 25.6847 11.7412 25.7624 11.7412H25.7915C26.0682 11.7412 26.2041 11.4095 26.0099 11.2046C25.9129 11.1022 25.8401 10.9949 25.7915 10.8729C25.5586 10.2729 26.0051 9.4583 27.0534 8.57045C31.3585 4.92168 36.3964 2.37046 38.2165 2.3607C38.9056 2.36558 41.3712 3.52656 42.57 4.05338C43.0602 4.26802 43.3466 4.39485 43.5262 4.46802C43.7688 4.57046 43.8902 4.50704 43.8902 4.35095C43.8902 3.98509 43.895 3.36558 43.9533 3.28753C44.0649 3.13631 44.3221 3.10704 44.5114 3.10704H46.5111C46.7149 3.10704 46.9819 3.13631 47.0886 3.2729C47.2537 3.48265 47.1178 4.01924 47.045 4.30704C46.8896 4.9168 46.7732 5.64851 46.7246 6.32168L46.7101 6.50216L46.8508 6.60948C46.8654 6.61924 48.4913 7.82411 49.3746 8.57533C50.423 9.4632 50.8695 10.2778 50.6365 10.8778C50.3744 11.5461 49.263 11.951 47.87 11.8827C47.5934 11.8681 47.3265 11.8534 47.0644 11.8437H47.0547C46.8751 11.8339 46.7246 11.9802 46.7295 12.1607V12.1705C46.7489 12.9607 46.977 14.5559 48.3069 16.3461L48.3166 16.3607C49.4814 17.7559 49.6513 19.3754 48.7922 20.7949C47.7536 22.5022 45.1521 23.8729 41.6818 23.0827L41.5945 23.0632L41.5071 23.0924C40.5607 23.4095 39.0124 23.5559 38.2165 23.5559C37.4205 23.5559 35.8722 23.4144 34.9258 23.0924L34.8384 23.0632L34.7511 23.0827C31.276 23.8729 28.6745 22.5022 27.6407 20.7949C27.5339 20.6193 27.4466 20.4437 27.3738 20.268C27.3252 20.1559 27.2136 20.0827 27.0874 20.0827H27.0631C26.8399 20.0827 26.6894 20.3071 26.7768 20.5168C26.8641 20.7266 26.9661 20.9315 27.0874 21.1363C28.228 23.0144 31.0236 24.5363 34.7268 23.7559C34.7753 23.7461 34.8287 23.7461 34.8773 23.7607C35.9499 24.0827 37.469 24.2046 38.2116 24.2046C38.9542 24.2046 40.4733 24.0827 41.5459 23.7607C41.5945 23.7461 41.643 23.7461 41.6964 23.7559C45.3996 24.5363 48.1952 23.0144 49.3358 21.1363C50.3356 19.4924 50.1415 17.5559 48.8116 15.9559C47.9234 14.7559 47.574 13.6681 47.4381 12.8876C47.4041 12.6924 47.5643 12.5168 47.7584 12.5266C47.7827 12.5266 47.8069 12.5315 47.8312 12.5315C49.5299 12.6144 50.8598 12.0632 51.2287 11.1217C51.5005 10.4973 51.4471 9.4681 49.8114 8.08265Z" fill="#FF4A3D"/>
</g>
<defs>
<clipPath id="clip0_33_34">
<rect width="56" height="26" fill="white"/>
</clipPath>
</defs>
</svg>
